<svg width="24" height="24" viewBox="0 0 24 24" fill="none" xmlns="http://www.w3.org/2000/svg">
<rect width="24" height="24" rx="12" fill="#D6B35A"/>
<path d="M10.5385 21.2461C10.9504 21.2461 11.2517 20.9347 11.2517 20.543V3.45704C11.2517 3.06532 10.9504 2.75392 10.5385 2.75392C10.1368 2.75392 9.83538 3.06532 9.83538 3.45704V20.543C9.83538 20.9347 10.1368 21.2461 10.5385 21.2461ZM16.3845 19.2372C16.7863 19.2372 17.0876 18.9157 17.0876 18.524V5.47599C17.0876 5.08428 16.7863 4.76285 16.3845 4.76285C15.9827 4.76285 15.6713 5.08428 15.6713 5.47599V18.524C15.6713 18.9157 15.9827 19.2372 16.3845 19.2372ZM7.62558 17.6099C8.02737 17.6099 8.3287 17.2986 8.3287 16.9068V7.09321C8.3287 6.70145 8.02737 6.39009 7.62558 6.39009C7.21372 6.39009 6.9124 6.70145 6.9124 7.09321V16.9068C6.9124 17.2986 7.21372 17.6099 7.62558 17.6099ZM13.4615 16.5251C13.8633 16.5251 14.1747 16.2137 14.1747 15.822V8.17801C14.1747 7.78629 13.8633 7.47489 13.4615 7.47489C13.0597 7.47489 12.7584 7.78629 12.7584 8.17801V15.822C12.7584 16.2137 13.0597 16.5251 13.4615 16.5251ZM19.3075 14.7271C19.7093 14.7271 20.0106 14.4057 20.0106 14.0139V9.98606C20.0106 9.59431 19.7093 9.27288 19.3075 9.27288C18.8956 9.27288 18.5943 9.59431 18.5943 9.98606V14.0139C18.5943 14.4057 18.8956 14.7271 19.3075 14.7271ZM4.7026 13.9336C5.10438 13.9336 5.40571 13.6222 5.40571 13.2305V10.7695C5.40571 10.3778 5.10438 10.0664 4.7026 10.0664C4.29074 10.0664 3.98941 10.3778 3.98941 10.7695V13.2305C3.98941 13.6222 4.29074 13.9336 4.7026 13.9336Z" fill="white"/>
</svg>
